<svg width="400" height="300" viewBox="0 0 400 300" fill="none" xmlns="http://www.w3.org/2000/svg">
<path d="M319.398 132.385C319.398 152.587 298.037 167.258 288.596 183.559C278.862 200.387 276.515 226.114 259.702 235.868C243.386 245.333 220.161 234.747 199.96 234.747C179.758 234.747 156.527 245.309 140.217 235.868C123.383 226.133 121.042 200.407 111.323 183.559C101.852 167.243 80.5 152.587 80.5 132.385C80.5 112.184 101.867 97.5125 111.302 81.212C121.042 64.3785 123.384 38.6571 140.197 28.9027C156.513 19.502 179.738 30.0385 199.945 30.0385C220.151 30.0385 243.371 19.502 259.686 28.9176C276.515 38.6571 278.861 64.3785 288.581 81.227C298.036 97.5225 319.398 112.164 319.398 132.385Z" fill="black" fill-opacity="0.04"/>
<path d="M198.35 275C247.05 275 286.528 272.939 286.528 270.397C286.528 267.854 247.05 265.793 198.35 265.793C149.65 265.793 110.172 267.854 110.172 270.397C110.172 272.939 149.65 275 198.35 275Z" fill="#A6A9B3"/>
<path d="M173.363 95.8384C173.861 101.373 174.32 106.888 174.798 112.418C175.731 123.086 176.658 133.757 177.578 144.431C178.305 152.711 179.026 160.992 179.74 169.275H222.031C222.854 160.992 223.685 152.711 224.521 144.431C224.995 139.733 225.458 135.05 225.926 130.352C227.082 118.854 228.231 107.35 229.374 95.8384H173.363Z" fill="#DADBE0"/>
<path opacity="0.1" d="M216.33 121.271C208.061 130.362 206.91 135.22 202.984 136.928C198.421 138.891 190.435 136.43 175.449 115.656C176.164 125.248 176.873 134.839 177.577 144.431C178.304 152.711 179.025 160.992 179.739 169.275H222.03C222.853 160.992 223.684 152.711 224.52 144.431H224.7L227.893 110.604C223.731 113.811 219.861 117.38 216.33 121.271Z" fill="black"/>
<path d="M161.016 139.764C162.05 142.606 163.437 145.308 165.146 147.804C165.644 148.547 166.207 149.249 166.76 149.897C169.243 152.877 172.398 155.224 175.966 156.747C177.786 157.518 179.685 158.085 181.63 158.435C184.345 158.938 187.11 159.105 189.865 158.934C190.095 158.934 190.314 158.934 190.538 158.889C190.624 158.894 190.711 158.894 190.797 158.889L191.295 158.844H191.704C193.808 158.622 195.895 158.261 197.951 157.763H197.981C199.802 157.326 201.597 156.786 203.356 156.144C204.143 155.868 204.904 155.569 205.638 155.247C206.661 154.805 207.622 154.342 208.522 153.857C210.159 152.984 211.736 152.006 213.245 150.928C213.923 150.43 214.545 149.971 215.093 149.533C211.516 147.922 207.933 146.313 204.343 144.706C202.25 143.764 200.163 142.817 198.07 141.886C197.211 142.563 196.273 143.134 195.276 143.585C194.518 143.919 193.719 144.15 192.899 144.272C192.366 144.363 191.825 144.393 191.285 144.362C189.681 144.272 188.172 143.48 186.767 142.215C186.695 142.156 186.627 142.092 186.562 142.025C185.918 141.407 185.322 140.741 184.779 140.033C179.01 132.679 175.493 118.461 175.493 118.461C180.011 113.599 181.471 107.083 179.14 101.971C177.899 99.3747 175.86 97.2427 173.321 95.8887C171.163 96.3007 169.112 97.1482 167.293 98.3797C166.336 99.0312 165.455 99.7882 164.667 100.636C157.17 108.637 156.014 126.288 161.016 139.764Z" fill="#DADBE0"/>
<path opacity="0.05" d="M173.362 95.8384C170.046 96.4519 167.014 98.1104 164.708 100.571C157.171 108.637 156.015 126.287 161.017 139.763C162.051 142.606 163.438 145.307 165.147 147.804C165.645 148.546 166.208 149.248 166.761 149.896C169.244 152.876 172.399 155.224 175.967 156.746C176.871 157.131 177.795 157.464 178.737 157.742L179.733 169.275H222.024C222.848 160.992 223.678 152.711 224.515 144.431C224.988 139.733 225.452 135.05 225.92 130.352C227.076 118.854 228.225 107.35 229.367 95.8384H173.362Z" fill="black"/>
<path d="M220.311 54.589C220.222 56.8755 220.037 60.2285 219.698 64.3485C219.609 65.255 219.539 66.047 219.519 66.341C218.997 70.847 217.909 75.269 216.281 79.503C215.942 80.34 215.598 81.132 215.215 81.9045C213.785 84.754 203.119 88.1965 193.853 87.18C184.587 86.164 181.264 77.1465 185.269 73.296C186.495 72.095 187.625 70.1225 188.557 67.97C189.665 65.3975 190.587 62.7485 191.317 60.044C191.77 58.5045 191.999 57.4835 191.999 57.4835L199.293 51.1865H216.779C216.575 54.1305 217.342 56.168 218.274 56.3525C219.205 56.537 220.107 54.928 220.311 54.589Z" fill="#EAB587"/>
<path opacity="0.1" d="M220.311 54.5889C220.221 56.8754 220.042 60.2284 219.698 64.3484C219.608 65.2549 219.539 66.0469 219.519 66.3409C218.996 70.8469 217.909 75.2689 216.28 79.5029C215.149 79.1424 214.096 78.5709 213.177 77.8189C212.178 76.9774 211.354 75.9484 210.751 74.7904C210.138 73.5374 209.726 72.1959 209.53 70.8149C209.356 69.9344 209.235 69.0444 209.166 68.1494C202.463 70.3889 195.202 70.3134 188.547 67.9354C189.652 65.3614 190.575 62.7129 191.307 60.0089C191.76 58.4699 191.989 57.4484 191.989 57.4484L199.282 51.1514H216.769C216.564 54.0954 217.332 56.1334 218.263 56.3174C219.195 56.5019 220.107 54.9274 220.311 54.5889Z" fill="black"/>
<path d="M222.482 58.3255C222.382 62.1315 220.733 65.798 218.422 68.04C217.889 68.4795 217.39 68.9575 216.927 69.4695C215.738 70.956 214.935 72.714 214.591 74.586C213.776 73.609 213.274 72.4095 213.151 71.1435C213.026 69.2205 213.858 65.6635 213.903 65.1655C213.903 65.1655 213.903 65.031 213.943 64.8715C213.943 64.5975 213.983 64.488 214.023 64.0545C214.084 63.127 214.084 62.197 214.023 61.2695C214.034 61.2255 214.034 61.179 214.023 61.135C209.594 63.8305 196.985 70.4015 188.496 63.945C187.17 62.9405 185.996 61.751 185.008 60.413C184.91 60.304 184.828 60.1815 184.764 60.049C184.527 59.716 184.311 59.368 184.117 59.008C184.098 58.976 184.076 58.946 184.052 58.918C183.554 57.985 183.217 56.9745 183.056 55.929L182.991 55.5205C182.951 55.0615 182.951 54.6 182.991 54.1405C183.206 52.332 184.043 50.654 185.357 49.3929C187.813 46.9469 191.45 45.4972 193.358 44.7449C200.791 41.7558 212.06 41.0534 218.456 47.734C220.061 49.4928 221.229 51.6035 221.869 53.8965C222.279 55.337 222.485 56.8275 222.482 58.3255Z" fill="#232B41"/>
<path d="M222.029 169.275L218.397 257.289H211.248L201.359 189.292L194.574 257.289H189.278L179.738 169.275H222.029Z" fill="#2D2927"/>
<path d="M203.242 269.51L219.183 267.737C219.183 267.737 219.761 263.602 217.26 262.147C214.76 260.692 205.852 265.634 203.242 269.51ZM179.737 269.51L195.679 267.737C195.679 267.737 196.257 263.602 193.756 262.147C191.255 260.692 182.348 265.634 179.737 269.51ZM161.016 139.764C162.05 142.606 163.437 145.308 165.146 147.804C167.824 151.758 171.579 154.861 175.966 156.747C176.408 152.925 175.598 149.064 173.659 145.742C170.486 140.197 165.16 137.836 161.016 139.764Z" fill="#232B41"/>
<path d="M207.078 94.6973C203.093 98.6428 199.326 100.103 196.442 100.631L195.944 100.715L189.602 95.7238L207.078 94.6973Z" fill="#E1E1E1"/>
<path d="M176.656 122.694C178.573 128.974 179.947 134.841 181.877 141.119C185.16 145.248 188.997 148.904 193.28 151.984C200.105 156.826 211.31 162.247 221.328 161.898C226.524 161.723 231.406 159.995 235.182 155.83C238.306 152.392 239.801 148.307 241.285 142.593C241.649 141.178 242.023 139.669 242.411 138.035C243.482 133.616 246.661 119.841 242.282 107.491C240.692 103.008 238.874 100.87 237.868 99.8541C235.603 97.5456 232.582 96.1312 229.359 95.8687C228.242 100.708 227.684 105.659 227.695 110.625C227.668 114.294 227.165 117.945 226.2 121.485C225.309 124.741 223.989 127.864 222.275 130.771C218.257 132.546 213.979 133.662 209.606 134.074C193.589 135.514 181.812 127.023 176.656 122.694Z" fill="#DADBE0"/>
<path d="M221.328 161.897C226.524 161.723 231.406 159.994 235.183 155.829C238.306 152.397 239.801 148.307 241.285 142.593C237.798 143.166 233.813 145.168 230.071 148.496C225.598 152.472 222.484 157.439 221.328 161.897Z" fill="#232B41"/>
<path opacity="0.22" d="M194.574 257.289L201.359 189.292L198.335 169.275H179.738L189.278 257.289H194.574Z" fill="black"/>
<path d="M197.851 99.5299L187.533 92.1169L185.172 94.6179L192.186 105.089L197.851 99.5299ZM198.334 99.4554L213.967 89.7109L217.539 92.9939L206.913 106.763L198.334 99.4554Z" fill="#F97316"/>
<path opacity="0.22" d="M197.851 99.5302L187.533 92.1172L185.172 94.6182L192.186 105.09L197.851 99.5302Z" fill="black"/>
<path opacity="0.3" d="M213.975 61.1352C209.546 63.8307 196.937 70.4017 188.448 63.9452C187.122 62.9407 185.948 61.7512 184.961 60.4127C184.862 60.3037 184.78 60.1817 184.717 60.0492C184.479 59.7162 184.263 59.3682 184.069 59.0082C184.05 58.9762 184.029 58.9462 184.004 58.9182C183.506 57.9852 183.169 56.9747 183.008 55.9292C184.989 57.8602 187.275 59.4527 189.773 60.6422C202.153 66.4557 215.131 59.2122 217.208 58.0567L217.368 57.9667C216.317 59.1052 215.183 60.1647 213.975 61.1352Z" fill="black"/>
</svg>
