<svg width="24" height="24" viewBox="0 0 24 24" fill="none" xmlns="http://www.w3.org/2000/svg">
<path opacity="0.987" fill-rule="evenodd" clip-rule="evenodd" d="M10.9389 2.09112C12.0264 1.96962 12.6699 1.96962 13.8384 2.09112C15.9068 2.39727 17.8242 3.35335 19.3134 4.82113C18.307 5.77233 17.314 6.73742 16.3344 7.71612C14.4584 6.12612 12.3644 5.75912 10.0524 6.61513C8.35636 7.39512 7.17536 8.65913 6.50936 10.4071C5.42102 9.59687 4.34686 8.76774 3.28736 7.92013C3.21373 7.88137 3.12964 7.86718 3.04736 7.87962C4.73036 4.63462 7.36036 2.70462 10.9374 2.08962" fill="#F44336"/>
<path opacity="0.997" fill-rule="evenodd" clip-rule="evenodd" d="M3.04438 7.87978C3.12938 7.86678 3.20988 7.88028 3.28588 7.92028C4.34538 8.7679 5.41954 9.59703 6.50788 10.4073C6.33662 11.0884 6.22866 11.7838 6.18538 12.4848C6.22238 13.1628 6.32988 13.8283 6.50788 14.4813L3.12538 17.1738C1.65238 14.0958 1.62538 10.9978 3.04438 7.87978Z" fill="#FFC107"/>
<path opacity="0.999" fill-rule="evenodd" clip-rule="evenodd" d="M19.1529 20.4346C18.0996 19.5058 16.997 18.6345 15.8498 17.8246C16.9998 17.0126 17.6978 15.8986 17.9438 14.4826H12.3083V10.5691C15.5583 10.5421 18.8068 10.5696 22.0539 10.6516C22.6698 13.9966 21.9583 17.0126 19.9193 19.6996C19.6769 19.9573 19.4201 20.2027 19.1529 20.4346Z" fill="#448AFF"/>
<path opacity="0.993" fill-rule="evenodd" clip-rule="evenodd" d="M6.50787 14.4824C7.73787 17.5394 9.99287 18.9664 13.2729 18.7634C14.1936 18.6568 15.0764 18.3352 15.8499 17.8244C16.9979 18.6364 18.0989 19.5064 19.1529 20.4344C17.4828 21.9351 15.3535 22.8255 13.1124 22.9604C12.6032 23.0011 12.0916 23.0011 11.5824 22.9604C7.76437 22.5104 4.94537 20.5814 3.12537 17.1734L6.50787 14.4824Z" fill="#43A047"/>
</svg>
